<svg id="home-1-3" xmlns="http://www.w3.org/2000/svg" width="59.887" height="59.889" viewBox="0 0 59.887 59.889">
  <g id="Group_42" data-name="Group 42" transform="translate(20.561 18.172)">
    <path id="Path_32" data-name="Path 32" d="M157.453-62.212c.186-3.736,2.133-5.31,5.289-7.43.182-.122.368-.244.555-.366,1.645-1.076,3.509-2.3,3.509-4.658a2.96,2.96,0,0,0-3.124-3.254c-2.761,0-3.249,2.244-3.324,4.281h-2.45v-.254c0-3.785,2.242-6.136,5.853-6.136,3.413,0,5.619,2.045,5.619,5.209,0,3.187-2.247,4.674-4.627,6.249l-.233.154c-1.145.74-3.279,2.12-3.946,3.732l-.12.289h8.9v2.184Z" transform="translate(-157.453 80.029)" fill="#00bcd0"/>
  </g>
  <g id="Group_43" data-name="Group 43" transform="translate(34.943 18.198)">
    <path id="Path_33" data-name="Path 33" d="M185.721-62.2l-.025-4.28h-7.661v-2.639l7.638-10.871h2.468v11.453h2.295v2.058h-2.295v4.28Zm-5.865-6.338h5.892v-8.707Z" transform="translate(-178.035 79.992)" fill="#00bcd0"/>
  </g>
  <g id="Group_44" data-name="Group 44" transform="translate(0 0)">
    <path id="Path_34" data-name="Path 34" d="M152.311-46.145c-4.734,0-10.349-3.008-15.81-8.471-4.5-4.5-7.328-9.062-8.191-13.208-.742-3.568.006-6.691,2.108-8.793l.915-.915-.115-.146a1.262,1.262,0,0,1,.1-1.666l3.252-3.252a1.261,1.261,0,0,1,.892-.368,1.26,1.26,0,0,1,.892.368l6.8,6.806a1.251,1.251,0,0,1,.369.892,1.251,1.251,0,0,1-.369.891l-3.252,3.252a1.249,1.249,0,0,1-.89.37,1.285,1.285,0,0,1-.395-.064l-.2-.065-.061.2a5.817,5.817,0,0,0-.249,1.588c-.052,2.521,1.4,5.275,4.314,8.188,2.824,2.823,5.614,4.315,8.07,4.315l.173,0a5.83,5.83,0,0,0,1.532-.252l.2-.062-.065-.2a1.261,1.261,0,0,1,.306-1.282l3.251-3.249a1.253,1.253,0,0,1,.892-.37,1.255,1.255,0,0,1,.892.369l6.8,6.806a1.247,1.247,0,0,1,.369.887,1.254,1.254,0,0,1-.369.893l-1.229,1.229.646-.108a26.166,26.166,0,0,0,5.477-1.555,26.233,26.233,0,0,0,8.725-5.792,26.241,26.241,0,0,0,5.794-8.727,26.255,26.255,0,0,0,1.931-9.924,26.28,26.28,0,0,0-1.931-9.927,26.24,26.24,0,0,0-5.794-8.724,26.2,26.2,0,0,0-8.725-5.794,26.307,26.307,0,0,0-9.925-1.932,26.317,26.317,0,0,0-9.927,1.932,26.24,26.24,0,0,0-8.722,5.793,26.17,26.17,0,0,0-5.739,8.592l-.013-.008-.082.237a1.046,1.046,0,0,1-.994.718,1.048,1.048,0,0,1-1.046-1.048,1.076,1.076,0,0,1,.052-.328s.033-.084.048-.116a28.31,28.31,0,0,1,6.293-9.527,28.283,28.283,0,0,1,20.131-8.338,28.284,28.284,0,0,1,20.13,8.338,28.282,28.282,0,0,1,8.338,20.131,28.276,28.276,0,0,1-8.338,20.129,28.4,28.4,0,0,1-18.818,8.305,1.533,1.533,0,0,1-.423.066,1.271,1.271,0,0,1-.775-.269l-.146-.113-.915.914A8.526,8.526,0,0,1,152.311-46.145ZM131.9-75.136c-1.585,1.585-2.131,4.03-1.539,6.885.543,2.611,2.306,6.84,7.621,12.156s9.542,7.078,12.155,7.621a10.62,10.62,0,0,0,2.159.233,6.5,6.5,0,0,0,4.727-1.773l.924-.925-3.992-3.989-.133.062a7.8,7.8,0,0,1-3.092.732c-.084,0-.247,0-.25,0-3.056,0-6.265-1.658-9.538-4.927-3.359-3.361-5.016-6.654-4.924-9.787a7.769,7.769,0,0,1,.734-3.094l.062-.133-3.99-3.992Zm22.814,18,5.627,5.63,2.072-2.074L156.785-59.2Zm-21.323-21.32,5.628,5.626L141.09-74.9l-5.627-5.627Z" transform="translate(-128.03 106.034)" fill="#00bcd0"/>
  </g>
</svg>
