<?xml version="1.0" encoding="utf-8"?>
<!-- Generator: Adobe Illustrator 24.1.2, SVG Export Plug-In . SVG Version: 6.00 Build 0)  -->
<svg version="1.1" id="Layer_1" xmlns="http://www.w3.org/2000/svg" xmlns:xlink="http://www.w3.org/1999/xlink" x="0px" y="0px"
	 viewBox="0 0 79.5 91.2" style="enable-background:new 0 0 79.5 91.2;" xml:space="preserve">
<style type="text/css">
	.st0{fill:#00BCD0;}
</style>
<path class="st0" d="M58.6,37.3c-0.7,0-1.3-0.6-1.3-1.3c0-0.7,0.6-1.3,1.3-1.3c0.7,0,1.3,0.6,1.3,1.3C60,36.7,59.4,37.3,58.6,37.3
	L58.6,37.3z"/>
<path class="st0" d="M17.3,44.5c-0.5-0.1-0.9-0.5-1-1c-0.2-0.7,0.3-1.4,1-1.5c0.1,0,0.2,0,0.3,0c0.6,0,1.1,0.4,1.3,1
	c0.1,0.5-0.1,1-0.5,1.3L18,43.2l-1,0.2L17.3,44.5z"/>
<path class="st0" d="M65.2,90.1c-7.6,0-13.8-6.2-13.8-13.8c0-0.6,0-1.1,0.1-1.7l0.1-0.8L50.8,74c-1.2,0.5-2.5,0.7-3.8,0.7
	c-3.5,0-6.8-1.7-8.7-4.6l-0.4-0.6l-0.4,0.6c-2,2.9-5.2,4.6-8.7,4.6c-3,0-5.8-1.2-7.8-3.4c-1.4-1.5-2.3-3.4-2.5-5.5l-0.1-0.5
	l-0.5,0.1c-0.4,0.1-0.9,0.1-1.4,0.1c-4.2,0-8.1-2.2-10.2-5.8C4,55.9,4,51.1,6.5,47.4L6.7,47l-0.4-0.3c-3.6-2.4-5.8-6.5-5.8-10.9
	c0-5,2.8-9.5,7.3-11.8l0.3-0.2L8,23.5c-0.6-3.1,0.1-6.3,1.9-8.8c1.9-2.7,4.8-4.5,8-5l0.4-0.1l0-0.4C18.6,7,19.5,4.9,21,3.3
	c2-2.2,4.8-3.4,7.7-3.4c3.5,0,6.8,1.7,8.7,4.6l0.4,0.6l0.4-0.6c2-2.9,5.2-4.6,8.7-4.6c3,0,5.8,1.2,7.8,3.4c1.5,1.6,2.4,3.7,2.6,5.9
	l0,0.4l0.4,0.1c3.2,0.5,6.1,2.3,8,5c1.8,2.5,2.5,5.7,1.9,8.8l-0.1,0.4L68,24c4.5,2.2,7.3,6.8,7.3,11.8c0,4.4-2.2,8.5-5.8,10.9L69,47
	l0.3,0.4c2.4,3.7,2.5,8.5,0.1,12.2c-0.5,0.8-1.1,1.6-1.7,2.3l-0.6,0.7l0.9,0.2C74.4,64,79,69.7,79,76.3C79,83.9,72.8,90.1,65.2,90.1
	L65.2,90.1z M65.2,65c-3.8,0-7.3,1.9-9.3,5L55.8,70c-1.2,1.9-1.9,4-1.9,6.2c0,6.2,5.1,11.3,11.3,11.3l0.5,0v0
	c6-0.3,10.8-5.2,10.8-11.3C76.5,70,71.4,65,65.2,65L65.2,65z M44.7,43.4c-0.5,0-0.9,0.1-1.4,0.2c-2,0.5-4.2,2.6-4.2,6.6v14.4
	c0.1,4.2,3.5,7.6,7.7,7.6l0.1,0c2.2,0,4.4-0.9,5.9-2.6c0.3-0.3,0.5-0.6,0.7-0.9l0.2-0.3v0c0.6-1,1-2.1,1-3.3l0-0.4l-0.4-0.1
	c-2.4-0.9-4.3-2.8-5-5.3c-0.6-1.7-1-2.7-3.1-3.3c-0.7-0.2-1.1-0.9-0.9-1.6c0.1-0.6,0.7-0.9,1.2-0.9c0.1,0,0.2,0,0.3,0
	c3.3,0.9,4.1,3,4.8,4.8c0.7,1.9,1.3,3.3,4.5,4.2l0.1,0c0.9,0.3,1.7,0.4,2.6,0.4c3.3,0,6.4-1.8,8.1-4.6c2.2-3.4,1.8-7.9-1.1-10.8
	c-0.3-0.3-0.4-0.7-0.3-1.1c0.1-0.4,0.3-0.7,0.7-0.9c3.8-1.7,6.2-5.5,6.2-9.6c0-4.5-2.9-8.5-7-10c-0.6-0.2-1-0.9-0.8-1.6
	c0.9-2.7,0.5-5.7-1.2-8c-1.7-2.5-4.6-4-7.6-4c-3.9,0-4.8,1.7-5.9,3.6c-0.9,1.6-2,3.7-5.1,3.7c-0.3,0-0.7-0.1-0.9-0.4
	c-0.2-0.2-0.4-0.6-0.4-0.9c0-0.7,0.6-1.3,1.3-1.3c1.4,0,1.9-0.6,2.9-2.4c1-1.8,2.4-4.3,6.4-4.8l0.5-0.1l-0.1-0.5
	c-0.2-1.5-0.9-2.9-1.9-4.1c-1.5-1.6-3.6-2.6-5.8-2.6l-0.2,0c-4.2,0-7.6,3.4-7.7,7.6v15.4l0.5,0c6,0.4,8,2.7,9.8,5
	c1,1.5,2.6,2.8,4.4,3.5v0.1l0.4,0c0.6,0.2,1,0.9,0.8,1.6c-0.2,0.5-0.7,0.9-1.2,0.9c-0.1,0-0.3,0-0.4-0.1c-2.4-0.8-4.5-2.3-5.9-4.4
	c-1.7-2-3.1-3.8-7.8-4.1l-0.5,0v15.2l0.8-0.6c0.8-0.6,1.7-1.1,2.7-1.4c0.7-0.2,1.4-0.3,2-0.3c3,0,5.8,1.8,7.5,4.7
	c0.4,0.6,0.1,1.4-0.5,1.8c-0.2,0.1-0.4,0.2-0.6,0.2c-0.5,0-0.9-0.2-1.1-0.6C48.8,44.7,46.8,43.4,44.7,43.4z M28.9,72.1
	c4.1,0,7.5-3.3,7.7-7.4l0,0l0-0.2v-24l-0.5,0c-2.2-0.1-4.4-0.7-6.4-1.9l-0.3-0.2l-0.3,0.3c-1.6,1.6-3.5,2.9-5.5,3.9
	c-0.2,0.1-0.4,0.1-0.6,0.1c-0.5,0-0.9-0.3-1.2-0.7c-0.3-0.6-0.1-1.4,0.6-1.7c1.8-0.8,3.4-2,4.8-3.4l0.3-0.3l-0.2-0.3
	c-0.6-0.9-1.2-1.8-1.7-2.7c-1.4-2.5-2.3-4.3-5.8-4.7l-0.1,0c-0.3,0-0.6-0.2-0.9-0.5c-0.2-0.3-0.3-0.6-0.3-0.9l0,0
	c0.1-0.7,0.6-1.1,1.3-1.1c0,0,0.1,0,0.1,0c4.9,0.5,6.5,3.4,7.9,6c1.5,2.7,2.8,5.2,8.1,5.7l0.5,0V10.1c-0.1-4.2-3.5-7.6-7.7-7.6
	l-0.1,0c-2.2,0-4.4,0.9-5.9,2.6c-1,1.1-1.7,2.5-1.9,4.1l-0.1,0.5l0.5,0.1c4,0.6,5.4,3,6.4,4.8c1,1.8,1.4,2.4,2.9,2.4
	c0.3,0,0.7,0.1,0.9,0.4c0.2,0.2,0.4,0.6,0.4,0.9c0,0.7-0.6,1.3-1.3,1.3c-3.1,0-4.2-2-5.1-3.7c-1.1-1.9-2-3.6-5.8-3.6
	c-3,0-5.9,1.6-7.6,4c-1.7,2.3-2.1,5.3-1.2,8c0.2,0.7-0.1,1.4-0.8,1.6c-4.2,1.5-7,5.5-7,10c0,4.1,2.5,7.9,6.2,9.7
	c0.4,0.2,0.6,0.5,0.7,0.9c0.1,0.4,0,0.8-0.3,1.1c-2.9,2.9-3.3,7.4-1.1,10.8c1.7,2.8,4.8,4.6,8.1,4.6c0.9,0,1.8-0.1,2.7-0.4l0,0
	c3.2-0.9,3.8-2.3,4.5-4.2c0.7-1.8,1.5-3.9,4.8-4.8c0.1,0,0.2,0,0.3,0c0.6,0,1.1,0.4,1.2,0.9c0.2,0.7-0.2,1.4-0.9,1.6
	c-2,0.5-2.4,1.6-3,3.2c-0.7,2.5-2.6,4.5-5,5.4l-0.4,0.1l0,0.4c0.1,1.7,0.8,3.3,1.9,4.5c1.5,1.6,3.6,2.6,5.9,2.6h0L28.9,72.1z"/>
<path class="st0" d="M62.8,80.2c-0.3,0-0.7-0.1-0.9-0.4c-0.2-0.2-0.4-0.6-0.4-0.9v-7.1c0-0.7,0.6-1.3,1.3-1.3s1.3,0.6,1.3,1.3v5.8
	h4.1c0.7,0,1.3,0.6,1.3,1.3c0,0.7-0.6,1.3-1.3,1.3H62.8z"/>
</svg>
