<svg xmlns="http://www.w3.org/2000/svg" width="101.936" height="87.138" viewBox="0 0 101.936 87.138">
  <g id="home-4-5" transform="translate(0)">
    <g id="Group_66" data-name="Group 66" transform="translate(19.728 24.662)">
      <g id="Group_65" data-name="Group 65">
        <path id="Path_55" data-name="Path 55" d="M-823.98,365.831v-.549h-3.29v.549c0,.942.026,1.885.073,2.822l3.284-.167C-823.955,367.6-823.98,366.719-823.98,365.831Z" transform="translate(827.269 -365.282)" fill="#00bcd0"/>
      </g>
    </g>
    <g id="Group_68" data-name="Group 68" transform="translate(20.08 31.051)">
      <g id="Group_67" data-name="Group 67">
        <path id="Path_56" data-name="Path 56" d="M-823.8,368.945l-3.267.373a54.978,54.978,0,0,0,8.347,23.4l2.765-1.779A51.73,51.73,0,0,1-823.8,368.945Z" transform="translate(827.067 -368.945)" fill="#00bcd0"/>
      </g>
    </g>
    <g id="Group_70" data-name="Group 70" transform="translate(39.493 8.569)">
      <g id="Group_69" data-name="Group 69">
        <path id="Path_57" data-name="Path 57" d="M-794.826,356.055a17.151,17.151,0,0,1-9.636,2.939,17.153,17.153,0,0,1-9.635-2.937l-1.84,2.726a20.435,20.435,0,0,0,11.475,3.5,20.436,20.436,0,0,0,11.476-3.5Z" transform="translate(815.937 -356.055)" fill="#00bcd0"/>
      </g>
    </g>
    <g id="Group_72" data-name="Group 72" transform="translate(0 55.9)">
      <g id="Group_71" data-name="Group 71">
        <path id="Path_58" data-name="Path 58" d="M-823.784,383.192h-3.288A11.524,11.524,0,0,1-838.58,394.7v3.288A11.524,11.524,0,0,1-827.072,409.5h3.288a11.524,11.524,0,0,1,11.51-11.508V394.7A11.524,11.524,0,0,1-823.784,383.192Zm-1.643,19.557a14.882,14.882,0,0,0-6.4-6.4,14.87,14.87,0,0,0,6.4-6.4,14.855,14.855,0,0,0,6.4,6.4A14.868,14.868,0,0,0-825.427,402.749Z" transform="translate(838.58 -383.192)" fill="#00bcd0"/>
      </g>
    </g>
    <g id="Group_74" data-name="Group 74" transform="translate(13.153)">
      <g id="Group_73" data-name="Group 73">
        <path id="Path_59" data-name="Path 59" d="M-753.766,364.295h-3.148a21,21,0,0,0-19.372-13.153,20.1,20.1,0,0,0-11.088,3.188,10.725,10.725,0,0,1-11.7,0,20.1,20.1,0,0,0-11.088-3.188,20.9,20.9,0,0,0-20.878,20.878v4.334a61.219,61.219,0,0,0,9.745,33.174,58.015,58.015,0,0,1,7.488,17.313l1.788,7.16a5.637,5.637,0,0,0,5.48,4.28,5.611,5.611,0,0,0,5.587-4.812l3.689-24.593a4.062,4.062,0,0,1,4.039-3.478,4.06,4.06,0,0,1,4.038,3.478l3.687,24.593a5.617,5.617,0,0,0,5.588,4.812,5.635,5.635,0,0,0,5.48-4.28l1.791-7.16a57.9,57.9,0,0,1,7.489-17.312,61.812,61.812,0,0,0,8.089-19.1c0,.058.007.113.007.171h3.288a11.524,11.524,0,0,1,11.51-11.508V375.8A11.524,11.524,0,0,1-753.766,364.295Zm-14.152,43.454a61.279,61.279,0,0,0-7.911,18.3l-1.791,7.158a2.353,2.353,0,0,1-2.29,1.79,2.346,2.346,0,0,1-2.334-2.013l-3.689-24.593a7.328,7.328,0,0,0-7.291-6.277,7.328,7.328,0,0,0-7.292,6.277L-804.2,432.98a2.345,2.345,0,0,1-2.335,2.013,2.36,2.36,0,0,1-2.292-1.79l-1.789-7.158a61.24,61.24,0,0,0-7.911-18.3,57.945,57.945,0,0,1-9.22-31.395V372.02a17.609,17.609,0,0,1,17.59-17.59,16.809,16.809,0,0,1,9.281,2.649,13.72,13.72,0,0,0,7.657,2.283,13.711,13.711,0,0,0,7.655-2.283,16.819,16.819,0,0,1,9.283-2.649,17.651,17.651,0,0,1,17.391,14.9l.07,1.071a11.5,11.5,0,0,1-9.736,5.4v3.288a11.491,11.491,0,0,1,9.363,4.842A58.393,58.393,0,0,1-767.918,407.749Zm12.509-23.9a14.883,14.883,0,0,0-6.4-6.4,14.869,14.869,0,0,0,6.4-6.4,14.856,14.856,0,0,0,6.4,6.4A14.869,14.869,0,0,0-755.409,383.852Z" transform="translate(831.039 -351.142)" fill="#00bcd0"/>
      </g>
    </g>
  </g>
</svg>
