<svg xmlns="http://www.w3.org/2000/svg" viewBox="0 0 146.92 38.83"><title>logo-inv</title><g id="Layer_2" data-name="Layer 2"><g id="Layer_1-2" data-name="Layer 1"><text transform="translate(40.33 20.02)" style="font-size:18.980100631713867px;fill:#fff;font-family:HelveticaNeueLTW1G-Md, Helvetica Neue LT W1G"><tspan style="letter-spacing:0.03488439749859286em">А</tspan><tspan x="13.32" y="0" style="letter-spacing:-0.0007975046625784503em">л</tspan><tspan x="24.05" y="0" style="letter-spacing:-0.0019808986780174413em">ь</tspan><tspan x="34.24" y="0" style="letter-spacing:-0.0030356629091695853em">ф</tspan><tspan x="49.94" y="0" style="letter-spacing:0.000025725956857369365em">а</tspan><tspan x="60.49" y="0" style="letter-spacing:-0.008000772582641874em"> </tspan><tspan x="65.62" y="0" style="letter-spacing:-0.007203267920063422em">М</tspan><tspan x="82.35" y="0" style="letter-spacing:0.0055310807243344135em">е</tspan><tspan x="93.01" y="0">д</tspan></text><text transform="translate(39.73 33.06)" style="font-size:12px;fill:#fff;font-family:HelveticaNeueLTW1G-Lt, Helvetica Neue LT W1G">м<tspan x="8.02" y="0" style="letter-spacing:-0.0015055338541666667em">е</tspan><tspan x="14.23" y="0" style="letter-spacing:-0.000040690104166666664em">д</tspan><tspan x="20.85" y="0" style="letter-spacing:-0.0017903645833333333em">и</tspan><tspan x="27.27" y="0">ц</tspan><tspan x="33.94" y="0" style="letter-spacing:-0.0017903645833333333em">ин</tspan><tspan x="46.79" y="0" style="letter-spacing:-0.001220703125em">с</tspan><tspan x="53" y="0" style="letter-spacing:0.007405598958333333em">к</tspan><tspan x="59.09" y="0" style="letter-spacing:-0.0017903645833333333em">и</tspan><tspan x="65.51" y="0">й</tspan><tspan x="71.96" y="0" style="letter-spacing:-0.034993489583333336em"> </tspan><tspan x="74.87" y="0" style="letter-spacing:-0.011393229166666666em">ц</tspan><tspan x="81.41" y="0" style="letter-spacing:0.0032958984375em">е</tspan><tspan x="87.68" y="0" style="letter-spacing:0.0015055338541666667em">н</tspan><tspan x="94.14" y="0" style="letter-spacing:-0.003987630208333333em">т</tspan><tspan x="99.43" y="0">р</tspan></text><path d="M17.26,29.05A12.32,12.32,0,0,0,25,30V22.47h7.89v-7.7H25V6.88h-7.7v7.89H10.68a12.3,12.3,0,0,0,.44,7.7h6.14Z" style="fill:#d74039"/><path d="M18.92,1.87A16.46,16.46,0,1,0,35,28.72,18.42,18.42,0,1,1,24,1.51a16.44,16.44,0,0,0-5.12.36" style="fill:#fff"/><rect width="146.92" height="38.83" style="fill:none"/></g></g></svg>