<svg xmlns="http://www.w3.org/2000/svg" width="74.409" height="93.423" viewBox="0 0 74.409 93.423">
  <g id="depart-4-8" transform="translate(0)">
    <path id="Path_145" data-name="Path 145" d="M-552.722,389.726a1.369,1.369,0,0,0,.954-1.684,3.923,3.923,0,0,0-4.308-2.976,1.367,1.367,0,0,0-1.175,1.537,1.368,1.368,0,0,0,1.537,1.177,1.178,1.178,0,0,1,1.307.992,1.368,1.368,0,0,0,1.318,1,1.363,1.363,0,0,0,.366-.05Z" transform="translate(580.954 -321.064)" fill="#00bcd0"/>
    <path id="Path_146" data-name="Path 146" d="M-544.283,389.726a1.369,1.369,0,0,1-.954-1.684,3.923,3.923,0,0,1,4.308-2.976,1.366,1.366,0,0,1,1.175,1.537,1.367,1.367,0,0,1-1.537,1.177,1.179,1.179,0,0,0-1.307.992,1.368,1.368,0,0,1-1.318,1,1.363,1.363,0,0,1-.366-.05Z" transform="translate(590.458 -321.064)" fill="#00bcd0"/>
    <path id="Path_147" data-name="Path 147" d="M-537.234,392.194a2.318,2.318,0,0,0-2.315,2.315v2.624a2.319,2.319,0,0,0,2.315,2.316h4.593a2.318,2.318,0,0,0,2.316-2.316v-2.624a2.318,2.318,0,0,0-2.316-2.315Zm4.172,4.516h-3.749v-1.777h3.749Z" transform="translate(595.01 -315.385)" fill="#00bcd0"/>
    <path id="Path_148" data-name="Path 148" d="M-563.306,394.49h4.349a1.37,1.37,0,0,0,1.37-1.368,1.37,1.37,0,0,0-1.37-1.37h-4.349a1.37,1.37,0,0,0-1.368,1.37A1.369,1.369,0,0,0-563.306,394.49Z" transform="translate(575.072 -315.737)" fill="#00bcd0"/>
    <path id="Path_149" data-name="Path 149" d="M-563.306,397.033h3.072a1.368,1.368,0,0,0,1.368-1.369,1.367,1.367,0,0,0-1.368-1.368h-3.072a1.368,1.368,0,0,0-1.368,1.368A1.369,1.369,0,0,0-563.306,397.033Z" transform="translate(575.072 -313.717)" fill="#00bcd0"/>
    <path id="Path_150" data-name="Path 150" d="M-566.052,392.939a1.369,1.369,0,0,0-1.368,1.368V425.14a1.369,1.369,0,0,0,1.368,1.368h60.723a1.369,1.369,0,0,0,1.368-1.368V364.359a1.368,1.368,0,0,0-1.368-1.369h-60.723a1.368,1.368,0,0,0-1.368,1.369v24.477a1.369,1.369,0,0,0,1.368,1.369,1.37,1.37,0,0,0,1.37-1.369V365.727H-506.7v58.042h-16.176c-.018-.113-.036-.224-.05-.334a8.144,8.144,0,0,1,3.978-8.112l.084-.05a9.914,9.914,0,0,0,4.7-7.644,1.367,1.367,0,0,0-1.252-1.476,1.367,1.367,0,0,0-1.476,1.25,7.167,7.167,0,0,1-3.388,5.53l-.07.041a10.878,10.878,0,0,0-5.289,10.8H-530.6c-.122-4.87-.423-16.774-.542-21.491l3.243-2.05a7.006,7.006,0,0,1,2.741-1.033l.091-.013a7.136,7.136,0,0,1,7.2,3.594,1.365,1.365,0,0,0,1.191.694,1.352,1.352,0,0,0,.674-.179,1.369,1.369,0,0,0,.515-1.867,9.861,9.861,0,0,0-9.961-4.954l-.108.014a9.731,9.731,0,0,0-3.809,1.43l-1.86,1.175c-.034-1.356-.242-9.646-.274-10.884a12.525,12.525,0,0,1,7.033,3.542l2.192,2.192a1.362,1.362,0,0,0,.967.4,1.363,1.363,0,0,0,.969-.4,1.37,1.37,0,0,0,0-1.937l-2.19-2.19a15.243,15.243,0,0,0-9.038-4.376c-.021-.809-.088-3.458-.109-4.308a39.819,39.819,0,0,1,4.292,0,12.5,12.5,0,0,1,8.159,3.657l2.192,2.19a1.362,1.362,0,0,0,.967.4,1.363,1.363,0,0,0,.969-.4,1.368,1.368,0,0,0,0-1.935l-2.19-2.192a15.251,15.251,0,0,0-9.945-4.453,42.466,42.466,0,0,0-4.511-.005c-.014-.511-.1-4.082-.113-4.446a43.527,43.527,0,0,1,9.509-.583,12.519,12.519,0,0,1,8.159,3.657l2.192,2.192a1.363,1.363,0,0,0,.968.4,1.362,1.362,0,0,0,.967-.4,1.37,1.37,0,0,0,0-1.937l-2.19-2.19a15.245,15.245,0,0,0-9.945-4.453,45.85,45.85,0,0,0-9.732.552,3.746,3.746,0,0,0-3.763-3.555,3.748,3.748,0,0,0-3.763,3.555,45.837,45.837,0,0,0-9.732-.552,15.243,15.243,0,0,0-9.943,4.453l-2.192,2.19a1.37,1.37,0,0,0,0,1.937,1.369,1.369,0,0,0,.969.4,1.366,1.366,0,0,0,.969-.4l2.19-2.192a12.524,12.524,0,0,1,8.161-3.657,43.505,43.505,0,0,1,9.508.583l-.111,4.446a42.5,42.5,0,0,0-4.513.005,15.243,15.243,0,0,0-9.943,4.453l-2.192,2.192a1.367,1.367,0,0,0,0,1.935,1.362,1.362,0,0,0,.967.4,1.367,1.367,0,0,0,.969-.4l2.19-2.192A12.512,12.512,0,0,1-544,381.129a39.819,39.819,0,0,1,4.292,0c-.023.886-.09,3.5-.109,4.308a15.249,15.249,0,0,0-9.038,4.376l-2.19,2.19a1.369,1.369,0,0,0,0,1.937,1.366,1.366,0,0,0,.969.4,1.366,1.366,0,0,0,.969-.4l2.19-2.192a12.524,12.524,0,0,1,7.032-3.542c0,.022-.291,11.561-.274,10.884l-1.858-1.175a9.751,9.751,0,0,0-3.826-1.431l-.093-.013a9.781,9.781,0,0,0-7.316,1.928,9.94,9.94,0,0,0-3.861,6.651c-.041.307-.074.612-.1.911a9.971,9.971,0,0,0,4.692,9.311l.088.054a8.146,8.146,0,0,1,3.978,8.111c-.016.109-.032.222-.05.334h-16.176V394.308a1.37,1.37,0,0,0-1.37-1.368Zm32.354,16.593a5.915,5.915,0,0,1-3.985,0l.1-4.039a7.834,7.834,0,0,0,1.891.235,7.834,7.834,0,0,0,1.89-.235Zm-4.057,2.832a8.548,8.548,0,0,0,2.064.255,8.547,8.547,0,0,0,2.064-.255l.1,4.045a6.615,6.615,0,0,1-4.331,0Zm.52-20.619a6.67,6.67,0,0,0,1.544.185,6.658,6.658,0,0,0,1.544-.185l.1,4.037a4.481,4.481,0,0,1-3.293,0Zm2.844-9.711a3.307,3.307,0,0,1-2.6,0l.1-4.025a5.242,5.242,0,0,0,1.2.138,5.244,5.244,0,0,0,1.2-.138Zm-1.3,3a5.963,5.963,0,0,0,1.372-.161l.1,4.03a3.876,3.876,0,0,1-2.945,0l.1-4.03a5.974,5.974,0,0,0,1.372.161Zm0,13.8a7.03,7.03,0,0,0,1.718-.214c.025,1,.077,3.044.1,4.032a5.208,5.208,0,0,1-3.639,0c.025-.994.075-3.04.1-4.032a7.041,7.041,0,0,0,1.718.214Zm-2.351,24.935.115-4.532a9.346,9.346,0,0,0,2.237.274,9.37,9.37,0,0,0,2.238-.274l.113,4.532Zm2.351-53.4a1.025,1.025,0,0,1,1.031,1l.1,3.792a2.687,2.687,0,0,1-2.253,0l.095-3.792a1.026,1.026,0,0,1,1.031-1Zm-15.34,42.609-.066-.041a7.21,7.21,0,0,1-3.388-6.74c.022-.257.05-.52.084-.784a7.226,7.226,0,0,1,2.807-4.83,7.06,7.06,0,0,1,5.28-1.4l.091.013a7.023,7.023,0,0,1,2.742,1.033l3.241,2.05c-.082,3.254-.486,19.267-.542,21.491h-4.957A10.881,10.881,0,0,0-551.03,412.974Z" transform="translate(572.894 -338.561)" fill="#00bcd0"/>
    <path id="Path_151" data-name="Path 151" d="M-497.433,383.283a1.37,1.37,0,0,0,1.37-1.369V371.853a3.534,3.534,0,0,0-3.53-3.53h-5.269l-.129-.7a9.348,9.348,0,0,0-8.128-7.56l-5.585-.612a6.581,6.581,0,0,1-5.634-4.882l-1.071-4.17a1.37,1.37,0,0,0-1.666-.985,1.368,1.368,0,0,0-.986,1.666l1.071,4.168A9.336,9.336,0,0,0-519,362.173l5.587.61a6.6,6.6,0,0,1,5.732,5.332l.038.208h-51.246l.04-.208a6.6,6.6,0,0,1,5.732-5.332l5.587-.61a9.336,9.336,0,0,0,7.987-6.925l1.071-4.168a1.369,1.369,0,0,0-.985-1.666,1.368,1.368,0,0,0-1.666.985l-1.071,4.17a6.584,6.584,0,0,1-5.634,4.882l-5.587.612a9.348,9.348,0,0,0-8.128,7.56l-.127.7h-5.271a3.532,3.532,0,0,0-3.528,3.53v67.41a3.532,3.532,0,0,0,3.528,3.53h67.352a3.534,3.534,0,0,0,3.53-3.53V387.387a1.369,1.369,0,0,0-1.37-1.368,1.368,1.368,0,0,0-1.368,1.368v51.876a.792.792,0,0,1-.791.791h-67.352a.792.792,0,0,1-.791-.791v-67.41a.793.793,0,0,1,.791-.793h67.352a.793.793,0,0,1,.791.793v10.062A1.369,1.369,0,0,0-497.433,383.283Z" transform="translate(570.472 -349.37)" fill="#00bcd0"/>
  </g>
</svg>
