<svg id="depart-4-9" xmlns="http://www.w3.org/2000/svg" width="104.756" height="58.59" viewBox="0 0 104.756 58.59">
  <g id="Group_139" data-name="Group 139" transform="translate(0 0)">
    <path id="Path_143" data-name="Path 143" d="M-459.7,411.589a63.763,63.763,0,0,1-27.95-6.741,65.061,65.061,0,0,1-22.095-18.091,7.24,7.24,0,0,1,0-8.916,65.059,65.059,0,0,1,22.095-18.091,63.756,63.756,0,0,1,27.936-6.741c.147,0,.48-.005.813-.005s.665,0,.8.005a63.763,63.763,0,0,1,27.95,6.741,65.034,65.034,0,0,1,22.095,18.091,7.239,7.239,0,0,1,0,8.916,65.049,65.049,0,0,1-22.095,18.091,63.748,63.748,0,0,1-27.935,6.741c-.147,0-.48.005-.813.005S-459.567,411.593-459.7,411.589Zm.8-56.073A26.814,26.814,0,0,0-485.686,382.3,26.814,26.814,0,0,0-458.9,409.083,26.813,26.813,0,0,0-432.119,382.3,26.813,26.813,0,0,0-458.9,355.517Zm-20.476,3.46A62.382,62.382,0,0,0-486.526,362a62.533,62.533,0,0,0-21.233,17.386,4.729,4.729,0,0,0,0,5.822A62.5,62.5,0,0,0-486.526,402.6a62.344,62.344,0,0,0,7.15,3.029l.909-1.533A29.353,29.353,0,0,1-488.2,382.3a29.349,29.349,0,0,1,9.735-21.789Zm40.039,1.531A29.354,29.354,0,0,1-429.6,382.3a29.355,29.355,0,0,1-9.728,21.785l.91,1.533a62.3,62.3,0,0,0,7.14-3.021,62.505,62.505,0,0,0,21.235-17.386,4.729,4.729,0,0,0,0-5.822A62.534,62.534,0,0,0-431.278,362a62.517,62.517,0,0,0-7.151-3.03Z" transform="translate(511.28 -353.005)" fill="#00bcd0"/>
  </g>
  <g id="Group_140" data-name="Group 140" transform="translate(42.215 19.131)">
    <path id="Path_144" data-name="Path 144" d="M-469.014,387.879a10.175,10.175,0,0,1-10.164-10.164,10.175,10.175,0,0,1,10.164-10.163,10.094,10.094,0,0,1,7.183,2.98,10.093,10.093,0,0,1,2.981,7.183A10.176,10.176,0,0,1-469.014,387.879Zm0-17.809a7.654,7.654,0,0,0-7.647,7.646,7.656,7.656,0,0,0,7.647,7.648,7.591,7.591,0,0,0,5.4-2.242,7.591,7.591,0,0,0,2.241-5.406A7.654,7.654,0,0,0-469.014,370.07Z" transform="translate(479.178 -367.553)" fill="#00bcd0"/>
  </g>
</svg>
