<svg id="depart-4-7" xmlns="http://www.w3.org/2000/svg" width="91.706" height="91.712" viewBox="0 0 91.706 91.712">
  <g id="Group_143" data-name="Group 143" transform="translate(42.526 61.872)">
    <path id="Path_152" data-name="Path 152" d="M-617.509,413.651a1.389,1.389,0,0,1-.979-.416,1.386,1.386,0,0,1-.4-.986c0-.138.1-13.986.474-17.565a11.631,11.631,0,0,1,6.742-9.872,11.105,11.105,0,0,1,4.629-1c5.033,0,9.85,3.232,12.571,8.437a13.886,13.886,0,0,1,1.151,9.838,23.018,23.018,0,0,1-1.525,4.667,28.974,28.974,0,0,0-1.942,5.747,1.416,1.416,0,0,1-1.385,1.15,1.581,1.581,0,0,1-.273-.025,1.393,1.393,0,0,1-.882-.6,1.384,1.384,0,0,1-.2-1.047,31.149,31.149,0,0,1,2.161-6.425,20.165,20.165,0,0,0,1.325-4.106,11.01,11.01,0,0,0-.906-7.91c-2.237-4.278-6.109-6.938-10.107-6.938a8.377,8.377,0,0,0-3.471.744c-2.97,1.349-4.74,3.985-5.119,7.621-.355,3.453-.452,17.168-.452,17.3a1.4,1.4,0,0,1-1.4,1.383Z" transform="translate(618.892 -383.811)" fill="#00bcd0"/>
  </g>
  <g id="Group_144" data-name="Group 144" transform="translate(65.71 42.524)">
    <path id="Path_153" data-name="Path 153" d="M-598.726,395.15a5.959,5.959,0,0,1-4.991-2.879,16.029,16.029,0,0,1,.047-16.451,5.7,5.7,0,0,1,4.776-2.8l.242.005a5.75,5.75,0,0,1,4.828,2.979c3,5.038,3.017,10.1.061,15.929a5.6,5.6,0,0,1-4.667,3.2c-.1.009-.179.011-.255.011Zm-.061-19.329a3.14,3.14,0,0,0-2.554,1.541,13.447,13.447,0,0,0-.036,13.387,3.331,3.331,0,0,0,2.671,1.612,2.824,2.824,0,0,0,2.459-1.682c2.515-4.963,2.525-9.049.032-13.246a2.988,2.988,0,0,0-2.49-1.616Z" transform="translate(605.965 -373.024)" fill="#00bcd0"/>
  </g>
  <g id="Group_145" data-name="Group 145" transform="translate(0 27.063)">
    <path id="Path_154" data-name="Path 154" d="M-610.278,429.052a1.4,1.4,0,0,1-1.4-1.4v-8.2a45.057,45.057,0,0,0-10.578-28.983L-642.274,366.7a1.4,1.4,0,0,1,.167-1.968,1.385,1.385,0,0,1,.895-.33,1.4,1.4,0,0,1,1.073.5l20.021,23.774a47.869,47.869,0,0,1,11.235,30.782v8.2A1.4,1.4,0,0,1-610.278,429.052Z" transform="translate(642.602 -364.404)" fill="#00bcd0"/>
  </g>
  <g id="Group_146" data-name="Group 146" transform="translate(46.396 0)">
    <path id="Path_155" data-name="Path 155" d="M-578.65,441.011a1.388,1.388,0,0,1-.922-.552,1.382,1.382,0,0,1-.255-1.033l5.257-34.7a32.6,32.6,0,0,0-12.63-30.536l-28.995-22.37a1.4,1.4,0,0,1-.251-1.959,1.39,1.39,0,0,1,1.1-.543,1.4,1.4,0,0,1,.857.294l28.993,22.366a35.383,35.383,0,0,1,13.685,33.162l-5.257,34.7a1.4,1.4,0,0,1-1.385,1.189A1.264,1.264,0,0,1-578.65,441.011Z" transform="translate(616.734 -349.315)" fill="#00bcd0"/>
  </g>
  <g id="Group_147" data-name="Group 147" transform="translate(0 0.009)">
    <path id="Path_156" data-name="Path 156" d="M-600.618,406.231a10.991,10.991,0,0,1-6.469-2.091,11.1,11.1,0,0,1-4.586-8.97,11.013,11.013,0,0,1,.565-3.5,5.908,5.908,0,0,0-1.157-6.181l-29.929-29.924a1.4,1.4,0,0,1,0-1.975,1.385,1.385,0,0,1,.985-.405,1.393,1.393,0,0,1,.988.405l29.929,29.932a8.645,8.645,0,0,1,1.829,9.031,8.209,8.209,0,0,0-.422,2.615,8.3,8.3,0,0,0,3.431,6.706,8.224,8.224,0,0,0,4.848,1.559,8.967,8.967,0,0,0,2.814-.459,8.289,8.289,0,0,0,5.435-8.249,6.61,6.61,0,0,0-.208-1.385,1.4,1.4,0,0,1,.357-1.361,1.365,1.365,0,0,1,.972-.409,1.439,1.439,0,0,1,.38.052,6.981,6.981,0,0,0,1.837.217,8.217,8.217,0,0,0,6.559-3.232,8.373,8.373,0,0,0,1.411-7.311,8.034,8.034,0,0,0-5.106-5.515,8.935,8.935,0,0,0-2.87-.486,8.229,8.229,0,0,0-2.854.508,9,9,0,0,1-3.092.56,7.554,7.554,0,0,1-5.4-2.17l-22.5-22.493a1.4,1.4,0,0,1,0-1.973,1.38,1.38,0,0,1,.986-.407,1.376,1.376,0,0,1,.985.407l22.5,22.5a4.769,4.769,0,0,0,3.411,1.36,6.334,6.334,0,0,0,2.149-.395,11.032,11.032,0,0,1,3.815-.68,11.563,11.563,0,0,1,3.758.637,10.85,10.85,0,0,1,6.907,7.44,11.155,11.155,0,0,1-1.9,9.727,10.971,10.971,0,0,1-8.763,4.319h-.534l0,.536a11.077,11.077,0,0,1-7.359,10.455A11.732,11.732,0,0,1-600.618,406.231Z" transform="translate(642.602 -349.32)" fill="#00bcd0"/>
  </g>
</svg>
