<svg id="home-1-1" xmlns="http://www.w3.org/2000/svg" width="56.702" height="64.67" viewBox="0 0 56.702 64.67">
  <g id="Group_7" data-name="Group 7" transform="translate(0)">
    <g id="Group_6" data-name="Group 6" transform="translate(0)">
      <path id="Path_15" data-name="Path 15" d="M84.96,301.324a11.451,11.451,0,0,0-7.689-9l-8.976-2.991V288H66.209v1.959l-1.556,6.226-4.213-5.056H57.375l-4.213,5.056-1.556-6.226V288H49.52v1.334l-8.974,2.991a11.451,11.451,0,0,0-7.689,9l-2.3,13.8h56.7ZM59.95,313.033V296.344H57.864v16.689H42.328l.928-9.283-2.076-.208-.949,9.492H33.02l1.893-11.366a9.37,9.37,0,0,1,6.292-7.363l6.229-2.077v9.479a4.172,4.172,0,1,0,2.086,0V291.533l.3-.1,2.311,9.245,6.218-7.461h1.108l6.218,7.461,2.311-9.245.3.1v8.338l-3.952,1.977a4.151,4.151,0,0,0-2.306,3.732v1.2a4.176,4.176,0,0,0,4.172,4.172h1.043v-2.086H66.209a2.088,2.088,0,0,1-2.086-2.086v-1.2a2.077,2.077,0,0,1,1.153-1.866l4.063-2.031,4.063,2.031a2.077,2.077,0,0,1,1.153,1.866v1.2a2.088,2.088,0,0,1-2.086,2.086H71.424v2.086h1.043a4.135,4.135,0,0,0,2.709-1.025l.311,3.111Zm-11.474-9.388a2.086,2.086,0,1,1-2.086,2.086A2.088,2.088,0,0,1,48.477,303.646Zm29.107,9.388-.949-9.492-.5.05a4.152,4.152,0,0,0-1.8-1.744l-3.952-1.976v-7.644l6.229,2.077a9.369,9.369,0,0,1,6.292,7.363L84.8,313.033Z" transform="translate(-30.556 -250.45)" fill="#00bcd0"/>
      <path id="Path_16" data-name="Path 16" d="M116.637,28.1a11.4,11.4,0,0,0,2.9,4.894l4.067,4.068a5.182,5.182,0,0,0,3.688,1.527h4.888a5.182,5.182,0,0,0,3.688-1.527L139.935,33a11.419,11.419,0,0,0,2.9-4.894,5.18,5.18,0,0,0,2.515-9.329h.032V15.646a15.646,15.646,0,0,0-31.292,0v3.129h.032a5.18,5.18,0,0,0,2.515,9.329Zm24.572-3.219a9.33,9.33,0,0,1-2.749,6.638l-4.067,4.068a3.112,3.112,0,0,1-2.213.916h-4.888a3.11,3.11,0,0,1-2.213-.916l-4.067-4.068a9.33,9.33,0,0,1-2.75-6.638V19.818h7.713a13.407,13.407,0,0,0,6.889-1.9,13.41,13.41,0,0,0,6.889,1.9h1.455Zm4.172-1.938a3.123,3.123,0,0,1-2.135,2.952c.029-.335.049-.673.049-1.014V20.01A3.125,3.125,0,0,1,145.382,22.947Zm-29.206-7.3a13.56,13.56,0,1,1,27.12,0v2.191a5.21,5.21,0,0,0-1.043-.105h-2.5a11.339,11.339,0,0,1-6.312-1.911l-.578-.386-.579.386a11.335,11.335,0,0,1-6.311,1.911h-8.756a5.21,5.21,0,0,0-1.043.105Zm0,4.364v4.875c0,.341.02.679.049,1.015a3.11,3.11,0,0,1-.049-5.89Z" transform="translate(-101.385)" fill="#00bcd0"/>
    </g>
  </g>
</svg>
