<svg id="home-1-2" xmlns="http://www.w3.org/2000/svg" width="71.886" height="62.88" viewBox="0 0 71.886 62.88">
  <path id="Path_17" data-name="Path 17" d="M44.3,37.358A1.053,1.053,0,0,0,45.35,36.3v-3.18a1.053,1.053,0,0,0-2.106,0V36.3A1.053,1.053,0,0,0,44.3,37.358Zm-5.181.2a1.053,1.053,0,0,0,1.834-1.035l-1.335-2.367a1.053,1.053,0,0,0-1.834,1.035Zm8.928.4a1.056,1.056,0,0,0,1.434-.4l1.335-2.367a1.053,1.053,0,0,0-1.834-1.035l-1.335,2.367A1.053,1.053,0,0,0,48.044,37.953ZM68.286,66.878,59.75,64.033a1.754,1.754,0,0,1-1.068-1L53.925,51.461a5.246,5.246,0,0,0-4.87-3.263H49V46.3a4.7,4.7,0,1,0-9.407,0v1.9H5.265A5.271,5.271,0,0,0,0,53.463v6.95a1.053,1.053,0,0,0,2.106,0v-6.95A3.163,3.163,0,0,1,5.265,50.3H31.38V73.049H2.106V65.327a1.053,1.053,0,1,0-2.106,0V81.895A5.271,5.271,0,0,0,5.265,87.16h2.7a8.843,8.843,0,0,0,17.561,0H44.713a8.843,8.843,0,0,0,17.561,0h4.347a5.271,5.271,0,0,0,5.265-5.265V71.873A5.257,5.257,0,0,0,68.286,66.878ZM16.743,92.846a6.739,6.739,0,1,1,6.739-6.739A6.747,6.747,0,0,1,16.743,92.846ZM31.38,85.054H25.523a8.843,8.843,0,0,0-17.561,0h-2.7a3.163,3.163,0,0,1-3.159-3.159v-6.74H31.38ZM41.7,46.3a2.6,2.6,0,1,1,5.195,0v1.9H41.7ZM53.493,92.846a6.739,6.739,0,1,1,6.739-6.739A6.747,6.747,0,0,1,53.493,92.846Zm16.287-19.8H53.718a1.053,1.053,0,0,0,0,2.106H69.78v6.74a3.163,3.163,0,0,1-3.159,3.159H62.274a8.843,8.843,0,0,0-17.561,0H33.486v-9.9H48.8a1.053,1.053,0,0,0,0-2.106H33.486V50.3H49.055a3.147,3.147,0,0,1,2.922,1.957l4.757,11.573a3.859,3.859,0,0,0,2.35,2.2l8.537,2.845a3.154,3.154,0,0,1,2.159,3ZM50.014,53.51a1.747,1.747,0,0,0-1.628-1.1H37.347a1.757,1.757,0,0,0-1.755,1.755v9.758a1.757,1.757,0,0,0,1.755,1.755H52.313a1.774,1.774,0,0,0,1.628-2.41ZM37.7,63.572V54.516H48.149l3.645,9.056Zm15.8,19.375a3.159,3.159,0,1,0,3.159,3.159A3.163,3.163,0,0,0,53.493,82.947Zm0,4.212a1.053,1.053,0,1,1,1.053-1.053A1.054,1.054,0,0,1,53.493,87.159ZM18.007,52.41H15.479a1.9,1.9,0,0,0-1.9,1.9v4.212H9.372a1.9,1.9,0,0,0-1.9,1.9V62.94a1.9,1.9,0,0,0,1.9,1.9h4.212v4.212a1.9,1.9,0,0,0,1.9,1.9h2.527a1.9,1.9,0,0,0,1.9-1.9V64.836h4.212a1.9,1.9,0,0,0,1.9-1.9V60.413a1.9,1.9,0,0,0-1.9-1.9H19.9V54.305A1.9,1.9,0,0,0,18.007,52.41Zm5.9,8.214V62.73H19.27A1.476,1.476,0,0,0,17.8,64.2v4.633H15.69V64.2a1.476,1.476,0,0,0-1.474-1.474H9.582V60.624h4.633a1.476,1.476,0,0,0,1.474-1.474V54.516H17.8v4.633a1.476,1.476,0,0,0,1.474,1.474Zm-7.16,22.324A3.159,3.159,0,1,0,19.9,86.106,3.163,3.163,0,0,0,16.743,82.947Zm0,4.212A1.053,1.053,0,1,1,17.8,86.106,1.054,1.054,0,0,1,16.743,87.159Z" transform="translate(0 -32.072)" fill="#00bcd0"/>
</svg>
