<svg xmlns="http://www.w3.org/2000/svg" viewBox="0 0 146.92 38.83"><defs><style>.cls-1{isolation:isolate;}.cls-2{fill:#fff;}.cls-3{fill:#d74039;}.cls-4{fill:none;}</style></defs><g id="Layer_2" data-name="Layer 2"><g id="Layer_1-2" data-name="Layer 1"><g class="cls-1"><g class="cls-1"><path class="cls-2" d="M40.3,20,45.52,6.43h1.94L53,20H51L49.38,15.9H43.7L42.21,20Zm3.92-5.58h4.61l-1.42-3.76q-.64-1.71-1-2.82a17.75,17.75,0,0,1-.74,2.6Z"/></g><g class="cls-1"><path class="cls-2" d="M55.72,10.18h7.74V20H61.81V11.56H57.38v4.9a13.55,13.55,0,0,1-.11,2.26,1.58,1.58,0,0,1-.61,1,2.23,2.23,0,0,1-1.44.4c-.39,0-.84,0-1.35-.07V18.62h.73a1.73,1.73,0,0,0,.75-.11.56.56,0,0,0,.29-.33,7.82,7.82,0,0,0,.08-1.51Z"/></g><g class="cls-1"><path class="cls-2" d="M65.6,10.18h1.67V14h2.11a5.39,5.39,0,0,1,3.19.81A2.57,2.57,0,0,1,73.68,17a2.77,2.77,0,0,1-.93,2.1,4.21,4.21,0,0,1-3,.88H65.6Zm1.67,8.47H69a4.78,4.78,0,0,0,2.26-.39A1.28,1.28,0,0,0,72,17.05a1.61,1.61,0,0,0-.5-1.15,3.33,3.33,0,0,0-2.21-.5h-2Z"/></g><g class="cls-1"><path class="cls-2" d="M81.55,6.43h1.67v4.7a3.37,3.37,0,0,1,1.14-.88A3,3,0,0,1,85.69,10a3.23,3.23,0,0,1,2.78,1.45,6.29,6.29,0,0,1,1,3.68,6,6,0,0,1-1.1,3.73,3.35,3.35,0,0,1-2.75,1.42,3,3,0,0,1-2.42-1.07v4.62H81.55V19.17a3.37,3.37,0,0,1-1.11.8,3.17,3.17,0,0,1-1.31.27,3.48,3.48,0,0,1-2.71-1.36A5.82,5.82,0,0,1,75.27,15a5.93,5.93,0,0,1,1-3.59A3.3,3.3,0,0,1,79.13,10a3,3,0,0,1,1.34.29,3.09,3.09,0,0,1,1.08.88ZM77,15a5,5,0,0,0,.7,3,2.1,2.1,0,0,0,1.74.92A1.76,1.76,0,0,0,81,18a5.5,5.5,0,0,0,.54-2.74A5.91,5.91,0,0,0,81,12.3a1.83,1.83,0,0,0-1.7-1,1.94,1.94,0,0,0-1.68.95A4.7,4.7,0,0,0,77,15Zm6.25.19a5.06,5.06,0,0,0,.61,3,1.89,1.89,0,0,0,1.53.77A2.13,2.13,0,0,0,87.09,18,4.88,4.88,0,0,0,87.8,15a4.78,4.78,0,0,0-.66-2.79,2,2,0,0,0-1.7-.92,1.82,1.82,0,0,0-1.67.95A5.73,5.73,0,0,0,83.21,15.14Z"/></g><g class="cls-1"><path class="cls-2" d="M97.94,18.81a6.3,6.3,0,0,1-1.78,1.11,5.31,5.31,0,0,1-1.84.32,3.56,3.56,0,0,1-2.49-.79,2.61,2.61,0,0,1-.87-2,2.7,2.7,0,0,1,.33-1.33,2.62,2.62,0,0,1,.86-1,3.66,3.66,0,0,1,1.2-.55,11,11,0,0,1,1.48-.25,14.37,14.37,0,0,0,3-.58c0-.22,0-.37,0-.43a1.83,1.83,0,0,0-.47-1.44,2.82,2.82,0,0,0-1.9-.56,2.94,2.94,0,0,0-1.74.41,2.52,2.52,0,0,0-.83,1.46L91.24,13a4.09,4.09,0,0,1,.73-1.7,3.23,3.23,0,0,1,1.48-1A6.62,6.62,0,0,1,95.68,10a5.87,5.87,0,0,1,2,.29,2.71,2.71,0,0,1,1.16.75,2.62,2.62,0,0,1,.52,1.13,10.32,10.32,0,0,1,.08,1.54V15.9a23.5,23.5,0,0,0,.11,2.94A3.71,3.71,0,0,0,100,20H98.28A3.42,3.42,0,0,1,97.94,18.81Zm-.14-3.73a11.81,11.81,0,0,1-2.72.63,6.7,6.7,0,0,0-1.46.33,1.47,1.47,0,0,0-.65.55,1.36,1.36,0,0,0-.23.79,1.41,1.41,0,0,0,.5,1.11,2.16,2.16,0,0,0,1.48.45,3.34,3.34,0,0,0,1.71-.43,2.62,2.62,0,0,0,1.11-1.15,4.22,4.22,0,0,0,.26-1.67Z"/></g><g class="cls-1"><path class="cls-2" d="M107.36,20V6.43h2.7l3.22,9.62c.3.9.51,1.57.65,2,.15-.5.39-1.23.72-2.18l3.26-9.46h2.41V20h-1.73V8.65l-4,11.37H113L109.09,8.45V20Z"/></g><g class="cls-1"><path class="cls-2" d="M130.67,16.85l1.72.21a4.19,4.19,0,0,1-1.51,2.35,4.56,4.56,0,0,1-2.82.83,4.47,4.47,0,0,1-3.42-1.33,5.2,5.2,0,0,1-1.26-3.73,5.44,5.44,0,0,1,1.27-3.85A4.32,4.32,0,0,1,128,10a4.2,4.2,0,0,1,3.23,1.34,5.37,5.37,0,0,1,1.25,3.78c0,.1,0,.25,0,.45H125.1A3.78,3.78,0,0,0,126,18a2.73,2.73,0,0,0,2,.86,2.55,2.55,0,0,0,1.57-.48A3.17,3.17,0,0,0,130.67,16.85Zm-5.48-2.7h5.5a3.43,3.43,0,0,0-.63-1.86,2.56,2.56,0,0,0-2.07-1,2.61,2.61,0,0,0-1.93.77A3,3,0,0,0,125.19,14.15Z"/></g><g class="cls-1"><path class="cls-2" d="M135.91,10.18h6.86v8.47h1.06v4.16h-1.37V20h-7.75v2.79h-1.37V18.65h.88C135.39,17.05,136,14.23,135.91,10.18Zm1.39,1.38c-.13,3.19-.62,5.56-1.49,7.09h5.3V11.56Z"/></g></g><g class="cls-1"><g class="cls-1"><path class="cls-2" d="M40.55,26.84h1.64l1.64,5,1.81-5h1.52v6.22H46.1v-5l-1.83,5h-1l-1.74-5.25v5.25h-1Z"/></g><g class="cls-1"><path class="cls-2" d="M52.8,31.06l1.09.13a2.64,2.64,0,0,1-1,1.48,2.9,2.9,0,0,1-1.79.53A2.83,2.83,0,0,1,49,32.36a3.31,3.31,0,0,1-.8-2.36A3.44,3.44,0,0,1,49,27.56a2.77,2.77,0,0,1,2.1-.86,2.62,2.62,0,0,1,2,.85,3.35,3.35,0,0,1,.8,2.39c0,.06,0,.15,0,.28H49.28a2.4,2.4,0,0,0,.58,1.57,1.74,1.74,0,0,0,1.3.54,1.62,1.62,0,0,0,1-.3A2,2,0,0,0,52.8,31.06Zm-3.46-1.71h3.47a2.06,2.06,0,0,0-.4-1.18,1.62,1.62,0,0,0-1.3-.61,1.68,1.68,0,0,0-1.22.49A1.9,1.9,0,0,0,49.34,29.35Z"/></g><g class="cls-1"><path class="cls-2" d="M55.58,26.84h4.34v5.35h.67v2.63h-.86V33.06h-4.9v1.76H54V32.19h.56Q55.63,30.68,55.58,26.84Zm.88.87a10.23,10.23,0,0,1-.94,4.48h3.35V27.71Z"/></g><g class="cls-1"><path class="cls-2" d="M61.37,26.84h1.06v4.74l2.92-4.74h1.14v6.22H65.43V28.34l-2.92,4.72H61.37Z"/></g><g class="cls-1"><path class="cls-2" d="M67.81,26.84h1v5.35h2.92V26.84h1.06v5.35h.68v2.63h-.87V33.06H67.81Z"/></g><g class="cls-1"><path class="cls-2" d="M74.46,26.84h1.06v4.74l2.92-4.74h1.14v6.22H78.52V28.34L75.6,33.06H74.46Z"/><path class="cls-2" d="M81.16,26.84h1v2.59h2.93V26.84h1v6.22h-1V30.3H82.21v2.76h-1Z"/></g><g class="cls-1"><path class="cls-2" d="M91.37,30.78l1,.14a2.69,2.69,0,0,1-.87,1.67,2.52,2.52,0,0,1-1.72.61,2.67,2.67,0,0,1-2-.83A3.4,3.4,0,0,1,87,30a4.35,4.35,0,0,1,.33-1.76,2.32,2.32,0,0,1,1-1.14,3,3,0,0,1,1.48-.37,2.59,2.59,0,0,1,1.66.51,2.35,2.35,0,0,1,.83,1.46l-1,.15a1.71,1.71,0,0,0-.51-.94,1.36,1.36,0,0,0-.9-.32,1.63,1.63,0,0,0-1.3.57,2.75,2.75,0,0,0-.5,1.81,2.77,2.77,0,0,0,.48,1.82,1.57,1.57,0,0,0,1.26.57,1.43,1.43,0,0,0,1-.38A1.83,1.83,0,0,0,91.37,30.78Z"/></g><g class="cls-1"><path class="cls-2" d="M93.52,26.84h1v2.69a1,1,0,0,0,.71-.2,4.33,4.33,0,0,0,.59-1.12,4.35,4.35,0,0,1,.51-1,.85.85,0,0,1,.44-.32,2.71,2.71,0,0,1,.81-.08h.21v.87h-.29a.8.8,0,0,0-.54.13,3.19,3.19,0,0,0-.37.76,3.36,3.36,0,0,1-.44.85,1.86,1.86,0,0,1-.62.43,2.53,2.53,0,0,1,1.34,1.26l1.15,1.93H96.91l-1.12-1.93a2.67,2.67,0,0,0-.6-.76,1,1,0,0,0-.62-.19v2.88h-1Z"/></g><g class="cls-1"><path class="cls-2" d="M99.61,26.84h1.06v4.74l2.92-4.74h1.14v6.22h-1.06V28.34l-2.92,4.72H99.61Z"/></g><g class="cls-1"><path class="cls-2" d="M106,26.84h1.06v4.74L110,26.84h1.14v6.22h-1.06V28.34l-2.92,4.72H106Zm3.66-2.36h.72a1.68,1.68,0,0,1-.53,1.13,2,2,0,0,1-2.39,0,1.71,1.71,0,0,1-.54-1.13h.72a1,1,0,0,0,.33.6,1,1,0,0,0,.65.19,1.13,1.13,0,0,0,.72-.19A.92.92,0,0,0,109.69,24.48Z"/></g><g class="cls-1"><path class="cls-2" d="M115.41,26.84h1v5.35h2.92V26.84h1.06v5.35h.68v2.63h-.87V33.06h-4.84Z"/></g><g class="cls-1"><path class="cls-2" d="M126.19,31.06l1.09.13a2.64,2.64,0,0,1-1,1.48,2.9,2.9,0,0,1-1.79.53,2.83,2.83,0,0,1-2.16-.84,3.31,3.31,0,0,1-.8-2.36,3.44,3.44,0,0,1,.81-2.44,2.77,2.77,0,0,1,2.1-.86,2.62,2.62,0,0,1,2,.85,3.35,3.35,0,0,1,.8,2.39c0,.06,0,.15,0,.28h-4.64a2.4,2.4,0,0,0,.58,1.57,1.74,1.74,0,0,0,1.3.54,1.62,1.62,0,0,0,1-.3A2,2,0,0,0,126.19,31.06Zm-3.46-1.71h3.47a2.06,2.06,0,0,0-.4-1.18,1.62,1.62,0,0,0-1.3-.61,1.68,1.68,0,0,0-1.22.49A1.9,1.9,0,0,0,122.73,29.35Z"/></g><g class="cls-1"><path class="cls-2" d="M128.21,26.84h1v2.59h2.93V26.84h1.05v6.22h-1.05V30.3h-2.93v2.76h-1Z"/></g><g class="cls-1"><path class="cls-2" d="M134.09,26.84h5.06v.87h-2v5.35H136.1V27.71h-2Z"/></g><g class="cls-1"><path class="cls-2" d="M140,35.44v-8.6h1v.81a2.37,2.37,0,0,1,.77-.72,2.19,2.19,0,0,1,1-.23,2.38,2.38,0,0,1,1.4.41,2.45,2.45,0,0,1,.92,1.15,4.2,4.2,0,0,1,.31,1.64,4.13,4.13,0,0,1-.34,1.72,2.63,2.63,0,0,1-2.37,1.58,2,2,0,0,1-.95-.22,2.34,2.34,0,0,1-.68-.56v3Zm1-5.46a2.74,2.74,0,0,0,.48,1.78,1.51,1.51,0,0,0,2.38,0,2.79,2.79,0,0,0,.51-1.84,2.81,2.81,0,0,0-.49-1.79,1.5,1.5,0,0,0-1.17-.59,1.54,1.54,0,0,0-1.2.63A2.85,2.85,0,0,0,140.91,30Z"/></g></g><path class="cls-3" d="M17.26,29.05A12.3,12.3,0,0,0,25,30V22.47h7.89v-7.7H25V6.88H17.3v7.89H10.68a12.3,12.3,0,0,0,.44,7.7h6.14Z"/><path class="cls-2" d="M18.92,1.87A16.46,16.46,0,1,0,35,28.72,18.42,18.42,0,1,1,24,1.51a16.34,16.34,0,0,0-5.12.36"/><rect class="cls-4" width="146.92" height="38.83"/></g></g></svg>