<svg id="call24" xmlns="http://www.w3.org/2000/svg" width="49.447" height="49.447" viewBox="0 0 49.447 49.447">
  <path id="Path_160" data-name="Path 160" d="M7.655,176.733H1.449A1.449,1.449,0,0,0,0,178.182V193.7a1.449,1.449,0,0,0,1.449,1.449H7.655A1.449,1.449,0,0,0,9.1,193.7V178.182A1.449,1.449,0,0,0,7.655,176.733Z" transform="translate(0 -159.665)" fill="#fff"/>
  <path id="Path_161" data-name="Path 161" d="M274.307,192.529a1.449,1.449,0,0,0,1.449-1.449v-3.206h.1a1.449,1.449,0,1,0,0-2.9h-.1v-7.861a1.449,1.449,0,0,0-2.473-1.024l-6.667,6.664a5.243,5.243,0,0,0-1.516,3.67,1.449,1.449,0,0,0,1.449,1.449h6.31v3.206A1.449,1.449,0,0,0,274.307,192.529Zm-5.8-7.552a2.283,2.283,0,0,1,.157-.175l4.192-4.19v4.365Z" transform="translate(-239.498 -158.701)" fill="#fff"/>
  <path id="Path_162" data-name="Path 162" d="M139.189,191.081a1.449,1.449,0,0,0-1.449-1.449h-5.8a2.246,2.246,0,0,1,.157-.175l6.665-6.662a1.449,1.449,0,0,0,.425-1.024v-.776a5.328,5.328,0,0,0-10.656,0v0a1.449,1.449,0,0,0,2.9,0,2.43,2.43,0,0,1,4.861,0v.176l-6.243,6.24a5.243,5.243,0,0,0-1.515,3.67,1.449,1.449,0,0,0,1.449,1.449h7.758A1.449,1.449,0,0,0,139.189,191.081Z" transform="translate(-116.121 -158.702)" fill="#fff"/>
  <path id="Path_163" data-name="Path 163" d="M87.615,2.9a15.648,15.648,0,0,1,15.13,11.732,4.318,4.318,0,0,1,1.939-.458h.932a18.518,18.518,0,0,0-36,0h.932a4.318,4.318,0,0,1,1.939.458A15.648,15.648,0,0,1,87.615,2.9Z" transform="translate(-62.891)" fill="#fff"/>
  <path id="Path_164" data-name="Path 164" d="M228.266,391.057a9.427,9.427,0,0,1-8.64,5.68h-1.892a4.552,4.552,0,1,0,0,2.9h1.892a12.331,12.331,0,0,0,11.517-7.964h-.656A4.319,4.319,0,0,1,228.266,391.057Z" transform="translate(-188.695 -353.29)" fill="#fff"/>
  <path id="Path_165" data-name="Path 165" d="M425.388,176.733h-6.207a1.449,1.449,0,0,0-1.449,1.449V193.7a1.449,1.449,0,0,0,1.449,1.449h6.207a1.449,1.449,0,0,0,1.449-1.449V178.182A1.449,1.449,0,0,0,425.388,176.733Z" transform="translate(-377.39 -159.665)" fill="#fff"/>
</svg>
