<svg xmlns="http://www.w3.org/2000/svg" width="104.756" height="90.846" viewBox="0 0 104.756 90.846">
  <g id="home-4-6" transform="translate(0)">
    <path id="Path_52" data-name="Path 52" d="M-842.977,415.785h-5.492a12.224,12.224,0,0,1-9.092-3.989,12.232,12.232,0,0,1-3.222-9.42l.958-15.04c.557.335,1.13.59,1.7.881a24.384,24.384,0,0,0,4.7,1.95c.145,3.038,1.495,7.524,6.045,8.574a1.538,1.538,0,0,0,.693-3c-2.592-.6-3.357-3.113-3.581-4.87a27.046,27.046,0,0,0,3.891.354,1.539,1.539,0,0,0,1.538-1.538,1.538,1.538,0,0,0-1.538-1.537h-.043c-6.961-.094-13.556-3.678-18.554-8.956a6.312,6.312,0,0,0-9.143,0c-9.037,9.547-18.291,8.888-18.6,8.956a1.538,1.538,0,0,0-1.537,1.538,1.538,1.538,0,0,0,1.537,1.537,24.912,24.912,0,0,0,3.778-.326c-.225,1.755-1,4.249-3.574,4.842a1.537,1.537,0,0,0,.691,3c4.535-1.045,5.89-5.5,6.042-8.543a26.688,26.688,0,0,0,3.746-1.418c.021-.009,2.616-1.355,2.967-1.57,1.13,17.684.944,14.873.971,15.2a12.349,12.349,0,0,1-12.317,13.378H-895.3a1.54,1.54,0,0,0-1.538,1.538,1.537,1.537,0,0,0,1.538,1.538h4.887a15.443,15.443,0,0,0,15.382-16.693l-1.088-17.054a37.475,37.475,0,0,0,4.233-3.8,3.193,3.193,0,0,1,2.341-1c2.227,0,2.034,1.341,6.772,4.981l-1.074,16.875a15.469,15.469,0,0,0,4.027,11.712,15.47,15.47,0,0,0,11.354,4.981h5.492a1.536,1.536,0,0,0,1.537-1.538A1.537,1.537,0,0,0-842.977,415.785Z" transform="translate(921.821 -328.014)" fill="#00bcd0"/>
    <path id="Path_53" data-name="Path 53" d="M-830.122,433.243c-3.211-23.982-6.244-46.634-21.131-56.5a12,12,0,0,0-6.657-2c-6.131,0-15.61,4.655-16.144,11.086l-.34,4.1c-1.123-1.629-1.962-2.824-1.962-4.8v-34.58a1.537,1.537,0,0,0-1.538-1.537,1.536,1.536,0,0,0-1.537,1.537v34.58a9.084,9.084,0,0,0,1.35,4.776A44.038,44.038,0,0,0-874.345,395a25.281,25.281,0,0,0,6.848,5.663c.106.059.208.154.316.213a3.271,3.271,0,0,0,.521.237,17.643,17.643,0,0,0,7.385,1.892,1.43,1.43,0,0,0,.584-.241c.164-.075.365-.075.49-.2a1.538,1.538,0,0,0-1.055-2.634,13.1,13.1,0,0,1-2.185-.3,8.941,8.941,0,0,0,3.539-5.177,1.539,1.539,0,0,0-1.083-1.887,1.537,1.537,0,0,0-1.885,1.083,5.749,5.749,0,0,1-4.884,4.47,22.227,22.227,0,0,1-5.845-4.673l.612-7.362c.37-4.482,8.3-8.266,13.078-8.266a8.933,8.933,0,0,1,4.958,1.488c13.721,9.094,16.666,31.072,19.782,54.343l.051.378a2.4,2.4,0,0,1-.581,1.924,2.4,2.4,0,0,1-1.833.834h-13.636a1.539,1.539,0,0,0-1.538,1.538,1.537,1.537,0,0,0,1.538,1.537h13.636a5.51,5.51,0,0,0,4.148-1.882,5.514,5.514,0,0,0,1.315-4.359Z" transform="translate(934.777 -349.016)" fill="#00bcd0"/>
    <path id="Path_54" data-name="Path 54" d="M-888.232,379.309a8.934,8.934,0,0,1,4.959-1.488c4.781,0,12.706,3.783,13.078,8.266l.591,7.13c-.534.6-1.081,1.078-1.624,1.594a12.081,12.081,0,0,1-3.164,2.524c-.4.262-.8.591-1.211.813a5.814,5.814,0,0,1-5.037-4.5,1.538,1.538,0,0,0-1.885-1.083,1.539,1.539,0,0,0-1.083,1.887,8.966,8.966,0,0,0,3.546,5.182,13.194,13.194,0,0,1-2.081.293,1.539,1.539,0,0,0-1.055,2.635c.1.094.253.086.37.152a1.411,1.411,0,0,0,.727.289,21.213,21.213,0,0,0,7.807-2.053c4.655-2.466,8.494-7.008,10.98-11.044a9.1,9.1,0,0,0,1.346-4.77V350.553a1.537,1.537,0,0,0-1.537-1.537,1.536,1.536,0,0,0-1.538,1.537v34.587a6.658,6.658,0,0,1-1.782,4.371l-.305-3.678c-.532-6.431-10.011-11.086-16.142-11.086a12.009,12.009,0,0,0-6.659,2c-15.8,10.474-18.434,36.373-21.181,56.879a5.513,5.513,0,0,0,5.463,6.239h12.19a1.537,1.537,0,0,0,1.537-1.537,1.538,1.538,0,0,0-1.537-1.538h-12.19a2.4,2.4,0,0,1-1.833-.832,2.623,2.623,0,0,1-.53-2.3C-904.9,410.381-901.955,388.4-888.232,379.309Z" transform="translate(911.163 -349.016)" fill="#00bcd0"/>
  </g>
</svg>
