<svg xmlns="http://www.w3.org/2000/svg" width="88.894" height="88.895" viewBox="0 0 88.894 88.895">
  <g id="home-4-3" transform="translate(0)">
    <g id="Group_77" data-name="Group 77">
      <g id="Group_76" data-name="Group 76">
        <path id="Path_60" data-name="Path 60" d="M-908.46,369.651l-.488-.814a16.7,16.7,0,0,0-12.535-7.96,14.615,14.615,0,0,0-1.723-.112A14.355,14.355,0,0,0-937.544,375.1a14.274,14.274,0,0,0,2.949,8.7,14.134,14.134,0,0,0-2.285,4.376l-4.648,4.65a15.849,15.849,0,0,0-1.751,2.1v-5.492h-2.867v12.905h.087a15.945,15.945,0,0,0-.087,1.638v27.038h2.867V403.984a12.813,12.813,0,0,1,3.78-9.124l1.98-1.98a14.062,14.062,0,0,0,.663,3.882l-.614.616a9.957,9.957,0,0,0-2.941,7.1v26.548h2.867V404.474a7.1,7.1,0,0,1,1.962-4.9,14.351,14.351,0,0,0,12.375,7.074,14.642,14.642,0,0,0,1.7-.108,16.7,16.7,0,0,0,12.558-7.964l.488-.814a27.327,27.327,0,0,0,3.893-14.055A27.322,27.322,0,0,0-908.46,369.651Zm-2.459,26.632-.489.815a13.839,13.839,0,0,1-10.414,6.589,11.689,11.689,0,0,1-1.385.092,11.426,11.426,0,0,1-11.47-11.354,11.2,11.2,0,0,1,2.077-6.5,14.279,14.279,0,0,0,9.392,3.513v-2.867a11.483,11.483,0,0,1-11.47-11.47A11.518,11.518,0,0,1-921.8,363.727a13.819,13.819,0,0,1,10.392,6.586l.489.814a24.448,24.448,0,0,1,3.485,12.579A24.446,24.446,0,0,1-910.919,396.283Z" transform="translate(993.461 -342.126)" fill="#00bcd0"/>
        <path id="Path_61" data-name="Path 61" d="M-923.166,370.159l-.49-.82a10.916,10.916,0,0,0-8.208-5.2,9.609,9.609,0,0,0-1.13-.08v2.867a6.975,6.975,0,0,1,.82.063,8.062,8.062,0,0,1,6.061,3.828l.49.82a18.762,18.762,0,0,1,1.893,4.3l2.749-.818A21.4,21.4,0,0,0-923.166,370.159Z" transform="translate(1003.249 -339.679)" fill="#00bcd0"/>
        <path id="Path_62" data-name="Path 62" d="M-924.508,372.157l-2.841.406a18.671,18.671,0,0,1,.192,2.665h2.867A22.077,22.077,0,0,0-924.508,372.157Z" transform="translate(1007.449 -333.649)" fill="#00bcd0"/>
        <path id="Path_63" data-name="Path 63" d="M-956.852,372.656a5.743,5.743,0,0,1-1.857,4.217l1.941,2.112a8.628,8.628,0,0,0,2.784-6.33,8.611,8.611,0,0,0-8.6-8.6v2.867A5.74,5.74,0,0,1-956.852,372.656Z" transform="translate(981.227 -339.679)" fill="#00bcd0"/>
        <path id="Path_64" data-name="Path 64" d="M-960.3,372a5.643,5.643,0,0,1-2.292.48v2.867a8.507,8.507,0,0,0,3.441-.72Z" transform="translate(981.227 -333.767)" fill="#00bcd0"/>
        <rect id="Rectangle_60" data-name="Rectangle 60" width="2.868" height="44.447" transform="translate(47.315)" fill="#00bcd0"/>
        <path id="Path_65" data-name="Path 65" d="M-934.562,402.885a15.857,15.857,0,0,0-1.751-2.1l-4.648-4.65a14.162,14.162,0,0,0-2.283-4.378,14.274,14.274,0,0,0,2.948-8.7,14.355,14.355,0,0,0-14.337-14.339,14.706,14.706,0,0,0-1.7.108,16.708,16.708,0,0,0-12.558,7.964l-.488.815a27.326,27.326,0,0,0-3.891,14.054,27.32,27.32,0,0,0,3.893,14.054l.488.815a16.7,16.7,0,0,0,12.535,7.962,14.964,14.964,0,0,0,1.723.11,14.351,14.351,0,0,0,12.375-7.074,7.108,7.108,0,0,1,1.962,4.9v26.548h2.867V412.426a9.971,9.971,0,0,0-2.941-7.1l-.614-.614a14.1,14.1,0,0,0,.663-3.883l1.98,1.978a12.821,12.821,0,0,1,3.78,9.124v27.04h2.867V411.936a15.972,15.972,0,0,0-.087-1.638h.087V350.079h-2.867Zm-21.479,8.752a13.819,13.819,0,0,1-10.392-6.586l-.488-.816a24.449,24.449,0,0,1-3.485-12.577,24.444,24.444,0,0,1,3.485-12.577l.488-.815a13.839,13.839,0,0,1,10.414-6.589,11.678,11.678,0,0,1,1.385-.092,11.484,11.484,0,0,1,11.47,11.471,11.483,11.483,0,0,1-11.47,11.47v2.867a14.28,14.28,0,0,0,9.394-3.514,11.219,11.219,0,0,1,2.076,6.5A11.461,11.461,0,0,1-956.042,411.637Z" transform="translate(973.274 -350.079)" fill="#00bcd0"/>
      </g>
    </g>
  </g>
</svg>
