<svg id="home-4-1" xmlns="http://www.w3.org/2000/svg" width="94.617" height="90.08" viewBox="0 0 94.617 90.08">
  <g id="Group_65" data-name="Group 65">
    <g id="Group_64" data-name="Group 64">
      <path id="Path_52" data-name="Path 52" d="M-511.793,399.395a11.037,11.037,0,0,0-9.349-9.347V387.18c0-7.91-6.012-14.349-13.4-14.349-7.177,0-13.186,6.244-13.4,13.92h.092l-.092.016v31.076c0,9.935-7.427,18-16.557,18s-16.557-8.079-16.557-18v-2.691c2.286,0,4.73-1.657,4.73-6.307v-3.966c10.121-2.588,17.347-11.278,17.347-21.13V380.46h-3.155l-.066-20.523a7.892,7.892,0,0,0-6.487-7.72,4.707,4.707,0,0,0-5.934-3.014,4.707,4.707,0,0,0-3.014,5.934,4.707,4.707,0,0,0,5.934,3.014,4.7,4.7,0,0,0,2.906-2.719,4.73,4.73,0,0,1,3.436,4.514l.072,20.515h-3.153v3.333a12.538,12.538,0,0,1-9.077,11.764,14.322,14.322,0,0,1-8.674,0,12.53,12.53,0,0,1-9.057-11.764V380.46h-4.73v-20.5a4.728,4.728,0,0,1,3.5-4.547,4.754,4.754,0,0,0,6.162,2.684,4.753,4.753,0,0,0,2.684-6.162,4.752,4.752,0,0,0-6.162-2.684,4.753,4.753,0,0,0-2.784,2.958,7.887,7.887,0,0,0-6.556,7.751v20.5h-3.153v3.279c0,9.865,7.231,18.558,17.346,21.139v3.966c0,4.65,2.445,6.307,4.732,6.307v2.691c0,11.67,8.841,21.157,19.711,21.157s19.713-9.5,19.713-21.157v-31c.157-5.986,4.758-10.854,10.249-10.854,5.653,0,10.25,5.02,10.25,11.2v2.862a11.039,11.039,0,0,0-9.349,12.5,11.038,11.038,0,0,0,12.5,9.347,11.037,11.037,0,0,0,9.349-12.5Zm-61.386-44.166a1.578,1.578,0,0,1-1.578-1.577,1.577,1.577,0,0,1,1.578-1.577,1.576,1.576,0,0,1,1.577,1.577A1.577,1.577,0,0,1-573.179,355.229Zm-18.924-3.153a1.575,1.575,0,0,1,1.577,1.577,1.576,1.576,0,0,1-1.577,1.577,1.577,1.577,0,0,1-1.577-1.577A1.576,1.576,0,0,1-592.1,352.076Zm-11.039,31.663v-.126h4.732v.18a15.671,15.671,0,0,0,11.255,14.764,17.568,17.568,0,0,0,10.594,0A15.671,15.671,0,0,0-565.3,383.793v-.18h3.153v.126c0,8.771-6.76,16.491-16.085,18.359a22.523,22.523,0,0,1-6.652.326,20.932,20.932,0,0,1-2.178-.33C-596.38,400.23-603.141,392.512-603.141,383.739ZM-584.217,412c-1.42,0-1.577-2.208-1.577-3.153V405.5c.126.016.256.023.382.035.159.018.316.03.474.044.745.066,1.5.112,2.255.112h.08c.757,0,1.507-.045,2.248-.112.157-.014.324-.026.487-.044.126-.014.255-.019.378-.035v3.347c0,.945-.157,3.153-1.577,3.153Zm61.5-3.153a7.884,7.884,0,0,1-7.884-7.885,7.882,7.882,0,0,1,7.884-7.884,7.884,7.884,0,0,1,7.885,7.884A7.885,7.885,0,0,1-522.718,408.845Z" transform="translate(606.295 -348.919)" fill="#00bcd0"/>
    </g>
  </g>
  <g id="Group_67" data-name="Group 67" transform="translate(78.846 47.31)">
    <g id="Group_66" data-name="Group 66">
      <path id="Path_53" data-name="Path 53" d="M-556.359,376.044a4.73,4.73,0,0,0-4.73,4.73,4.73,4.73,0,0,0,4.73,4.73,4.73,4.73,0,0,0,4.73-4.73,4.73,4.73,0,0,0-4.73-4.73Zm0,6.307a1.577,1.577,0,0,1-1.577-1.577,1.577,1.577,0,0,1,1.577-1.577,1.577,1.577,0,0,1,1.577,1.577A1.577,1.577,0,0,1-556.359,382.351Z" transform="translate(561.089 -376.044)" fill="#00bcd0"/>
    </g>
  </g>
</svg>
