<svg xmlns="http://www.w3.org/2000/svg" width="99.401" height="89.622" viewBox="0 0 99.401 89.622">
  <path id="home-4-4" d="M-709.328,438.912l-.19-.023s-.178-.044-.216-.058l-.176-.068-.073-.04-.065-.047-.021-.03-.251-.164-.037-.031-.075-.085c-4.107-5.093-10.21-10.448-16.673-16.116-2.771-2.431-5.635-4.943-8.473-7.552a1.613,1.613,0,0,1-.523-1.128,1.608,1.608,0,0,1,.426-1.165,1.585,1.585,0,0,1,1.2-.525,1.62,1.62,0,0,1,1.1.427c2.794,2.567,5.639,5.063,8.389,7.477,5.184,4.547,10.052,8.817,13.987,13.01l1.788,1.9,1.786-1.9c3.935-4.191,8.8-8.463,13.959-12.984l.092-.082a1.619,1.619,0,0,1,1.069-.4,1.62,1.62,0,0,1,1.223.553,1.6,1.6,0,0,1,.4,1.174,1.61,1.61,0,0,1-.548,1.115l-.1.086c-6.459,5.667-12.562,11.02-16.617,16.058-.047.054-.119.129-.119.129l-.227.12-.1.133-.157.082-.14.056c-.037.012-.073.023-.11.031l-.19.042-.2.012Zm-5.417-28.515a1.634,1.634,0,0,1-1.456-.965l-10.4-23.311-6.352,12.975a1.633,1.633,0,0,1-1.458.91H-757.3a1.626,1.626,0,0,1-1.624-1.624,1.626,1.626,0,0,1,1.624-1.624h5.234l-2.067-3.656a33.41,33.41,0,0,1-4.791-16.665c0-7.994,2.6-14.85,7.51-19.826a25.212,25.212,0,0,1,18.153-7.318c12.322,0,18.659,6.282,21.8,11.553l2.248,3.855,2.226-3.869c3.138-5.255,9.476-11.539,21.8-11.539a25.215,25.215,0,0,1,18.153,7.318c4.912,4.976,7.509,11.832,7.509,19.826,0,13.36-9.753,24.805-17.091,32.251a1.607,1.607,0,0,1-1.156.483,1.614,1.614,0,0,1-1.139-.464,1.623,1.623,0,0,1-.485-1.146,1.6,1.6,0,0,1,.467-1.149c11.023-11.187,16.156-20.712,16.156-29.975,0-14.07-9.216-23.9-22.414-23.9-8.552,0-14.9,3.268-18.863,9.713a26.321,26.321,0,0,0-3.558,10.332,1.625,1.625,0,0,1-1.619,1.486,1.632,1.632,0,0,1-1.617-1.507,26.459,26.459,0,0,0-3.558-10.311c-3.964-6.445-10.31-9.713-18.861-9.713-13.2,0-22.416,9.827-22.416,23.9,0,6.22,2.3,12.527,7.041,19.278l.731,1.043h12.476l7.432-15.185a1.624,1.624,0,0,1,1.444-.909,1.651,1.651,0,0,1,1.5.963L-714.627,405-707,389.908a1.615,1.615,0,0,1,1.434-.89,1.611,1.611,0,0,1,1.449.867l3.619,6.874h10.631a1.627,1.627,0,0,1,1.626,1.624,1.627,1.627,0,0,1-1.626,1.624h-11.611a1.621,1.621,0,0,1-1.437-.869l-2.611-4.952L-713.27,409.5a1.616,1.616,0,0,1-1.448.893Z" transform="translate(758.92 -349.294)" fill="#00bcd0"/>
</svg>
